<?xml version="1.0" encoding="utf-8"?>
<!-- Generator: Adobe Illustrator 25.4.1, SVG Export Plug-In . SVG Version: 6.00 Build 0)  -->
<svg version="1.1" id="Layer_1" xmlns="http://www.w3.org/2000/svg" xmlns:xlink="http://www.w3.org/1999/xlink" x="0px" y="0px"
	 width="233.1px" height="70.1px" viewBox="0 0 233.1 70.1" style="enable-background:new 0 0 233.1 70.1;" xml:space="preserve">
<style type="text/css">
	.st0{clip-path:url(#SVGID_00000165192556428524666660000012718437701793320614_);fill:#00A5A9;}
	.st1{enable-background:new    ;}
	.st2{fill:#4D5CA6;}
</style>
<g>
	<g>
		<defs>
			<rect id="SVGID_1_" width="90.2" height="97.8"/>
		</defs>
		<clipPath id="SVGID_00000055708433303067517650000006339452948763748997_">
			<use xlink:href="#SVGID_1_"  style="overflow:visible;"/>
		</clipPath>
		<path style="clip-path:url(#SVGID_00000055708433303067517650000006339452948763748997_);fill:#00A5A9;" d="M60.4-17.4L-42.5,85.4
			l-9.1-9.1L51.3-26.6L60.4-17.4z M69.3-18L-38.9,90.3l9.1,9.1L78.4-8.9L69.3-18z"/>
	</g>
</g>
<g class="st1">
	<path class="st2" d="M44.9,19.4V52h-8.5V19.4H44.9z"/>
	<path class="st2" d="M56.4,27.3v3.4h0.1c0.9-2.7,2.8-4,5.6-4c2.7,0,4.7,1.1,5.8,3.3c1.1,2.2,1.6,5.6,1.6,10.2
		c0,2.4-0.2,4.4-0.5,5.9c-0.4,1.6-0.9,2.9-1.5,3.8c-0.7,1-1.4,1.6-2.4,2c-0.9,0.4-2,0.6-3.1,0.6c-1.2,0-2.2-0.2-3.1-0.7
		c-0.9-0.5-1.6-1.3-2-2.6h-0.1V60h-8.2V27.3H56.4z M56.7,43c0.1,0.9,0.2,1.6,0.3,2.1c0.2,0.5,0.4,0.9,0.7,1.1
		c0.3,0.2,0.7,0.3,1.1,0.3c0.5,0,0.9-0.1,1.2-0.3c0.3-0.2,0.5-0.6,0.7-1.1c0.2-0.5,0.3-1.2,0.3-2.1c0.1-0.9,0.1-2,0.1-3.3
		s0-2.4-0.1-3.3c-0.1-0.9-0.2-1.6-0.3-2.1c-0.2-0.5-0.4-0.9-0.7-1.1c-0.3-0.2-0.7-0.3-1.2-0.3c-0.5,0-0.8,0.1-1.1,0.3
		c-0.3,0.2-0.5,0.6-0.7,1.1c-0.2,0.5-0.3,1.2-0.3,2.1c-0.1,0.9-0.1,2-0.1,3.3S56.7,42.1,56.7,43z"/>
	<path class="st2" d="M78.5,45.7c0.1,0.4,0.2,0.8,0.5,1.1c0.4,0.6,1,0.9,1.7,0.9c0.6,0,1.2-0.2,1.7-0.5c0.5-0.4,0.7-0.9,0.7-1.6
		c0-0.7-0.3-1.3-0.9-1.7c-0.6-0.4-1.3-0.7-2.2-1.1c-0.9-0.3-1.8-0.6-2.9-1c-1-0.3-2-0.8-2.9-1.4c-0.9-0.6-1.6-1.3-2.2-2.3
		s-0.9-2.2-0.9-3.8c0-1.1,0.2-2.1,0.6-3c0.4-0.9,1-1.7,1.8-2.4c0.8-0.7,1.8-1.3,3.1-1.6c1.2-0.4,2.7-0.6,4.4-0.6
		c6.2,0,9.3,2.6,9.3,7.8h-7.1c0-1.1-0.2-1.8-0.6-2.2c-0.4-0.4-0.9-0.6-1.6-0.6c-0.6,0-1.1,0.2-1.5,0.5c-0.4,0.3-0.6,0.8-0.6,1.4
		c0,0.7,0.3,1.2,0.9,1.6s1.3,0.7,2.2,0.9c0.9,0.3,1.8,0.6,2.9,0.9c1,0.3,2,0.7,2.9,1.3c0.9,0.6,1.6,1.3,2.2,2.3s0.9,2.2,0.9,3.8
		c0,1.2-0.2,2.3-0.7,3.3s-1.1,1.9-1.9,2.6c-0.8,0.7-1.9,1.3-3.1,1.6s-2.6,0.5-4.2,0.5c-3.4,0-5.9-0.7-7.4-2.1
		c-1.5-1.4-2.3-3.4-2.3-6.1h7.2C78.4,44.8,78.5,45.3,78.5,45.7z"/>
	<path class="st2" d="M113.2,44.5c-0.2,1.6-0.7,2.9-1.4,4.1s-1.8,2.2-3.2,2.9c-1.4,0.7-3.2,1.1-5.6,1.1c-2.4,0-4.3-0.3-5.7-1
		c-1.4-0.7-2.5-1.6-3.2-2.7c-0.7-1.2-1.2-2.5-1.3-4.1c-0.2-1.6-0.3-3.3-0.3-5.1c0-1.6,0.1-3.2,0.3-4.8c0.2-1.6,0.7-2.9,1.4-4.2
		c0.7-1.2,1.8-2.2,3.2-3c1.4-0.7,3.2-1.1,5.6-1.1c2.4,0,4.3,0.3,5.7,1c1.4,0.7,2.5,1.6,3.2,2.8c0.7,1.2,1.2,2.6,1.3,4.1
		c0.2,1.6,0.3,3.3,0.3,5.1C113.5,41.3,113.4,42.9,113.2,44.5z M100.8,43.5c0.1,1,0.2,1.8,0.4,2.4c0.2,0.6,0.4,1,0.7,1.2
		c0.3,0.2,0.7,0.3,1.1,0.3s0.8-0.1,1.1-0.3c0.3-0.2,0.5-0.6,0.7-1.2c0.2-0.6,0.3-1.4,0.3-2.4c0.1-1,0.1-2.3,0.1-3.8
		c0-1.6,0-2.8-0.1-3.8c-0.1-1-0.2-1.8-0.3-2.4c-0.2-0.6-0.4-1-0.7-1.2c-0.3-0.2-0.7-0.3-1.1-0.3s-0.8,0.1-1.1,0.3
		c-0.3,0.2-0.5,0.6-0.7,1.2s-0.3,1.4-0.4,2.4c-0.1,1-0.1,2.3-0.1,3.8C100.7,41.2,100.8,42.5,100.8,43.5z"/>
	<path class="st2" d="M122.6,45.7c0.1,0.4,0.2,0.8,0.5,1.1c0.4,0.6,1,0.9,1.7,0.9c0.6,0,1.2-0.2,1.7-0.5s0.7-0.9,0.7-1.6
		c0-0.7-0.3-1.3-0.9-1.7s-1.3-0.7-2.2-1.1c-0.9-0.3-1.8-0.6-2.9-1c-1-0.3-2-0.8-2.9-1.4c-0.9-0.6-1.6-1.3-2.2-2.3s-0.9-2.2-0.9-3.8
		c0-1.1,0.2-2.1,0.6-3c0.4-0.9,1-1.7,1.8-2.4c0.8-0.7,1.8-1.3,3.1-1.6c1.2-0.4,2.7-0.6,4.4-0.6c6.2,0,9.3,2.6,9.3,7.8h-7.1
		c0-1.1-0.2-1.8-0.6-2.2c-0.4-0.4-0.9-0.6-1.6-0.6c-0.6,0-1.1,0.2-1.5,0.5c-0.4,0.3-0.6,0.8-0.6,1.4c0,0.7,0.3,1.2,0.9,1.6
		s1.3,0.7,2.2,0.9s1.8,0.6,2.9,0.9c1,0.3,2,0.7,2.9,1.3c0.9,0.6,1.6,1.3,2.2,2.3s0.9,2.2,0.9,3.8c0,1.2-0.2,2.3-0.7,3.3
		c-0.5,1-1.1,1.9-1.9,2.6c-0.8,0.7-1.9,1.3-3.1,1.6s-2.6,0.5-4.2,0.5c-3.4,0-5.9-0.7-7.4-2.1c-1.5-1.4-2.3-3.4-2.3-6.1h7.2
		C122.5,44.8,122.5,45.3,122.6,45.7z"/>
	<path class="st2" d="M162.9,19.4c1.6,0,3,0.2,4.1,0.6c1.1,0.4,2.1,1,2.8,1.8c0.7,0.8,1.2,1.7,1.6,2.8c0.3,1.1,0.5,2.2,0.5,3.5
		c0,2.2-0.4,4-1.3,5.3c-0.9,1.3-2.3,2.2-4.3,2.5v0.1c2,0.2,3.4,0.9,4.2,2.2c0.8,1.3,1.1,3,1.1,5.2v2.8c0,0.4,0,0.9,0,1.3
		c0,0.5,0,0.9,0,1.3c0,0.4,0.1,0.8,0.1,1.1c0.1,0.3,0.1,0.6,0.2,0.8c0.1,0.2,0.2,0.4,0.4,0.5s0.3,0.3,0.6,0.5V52h-9.1
		c-0.2-0.4-0.4-0.9-0.5-1.5c-0.1-0.6-0.2-1.2-0.2-1.7s-0.1-1.1-0.1-1.7c0-0.5,0-1,0-1.3v-2.2c0-0.9,0-1.7-0.1-2.3
		c-0.1-0.6-0.3-1.1-0.5-1.4c-0.2-0.3-0.5-0.6-0.9-0.7c-0.4-0.1-0.8-0.2-1.3-0.2h-2.2V52h-8.5V19.4H162.9z M159.8,33.2
		c1.2,0,2.1-0.4,2.7-1.1c0.6-0.7,0.9-1.7,0.9-2.8c0-1.4-0.3-2.3-0.8-2.9c-0.6-0.6-1.5-0.9-2.8-0.9h-1.6v7.7H159.8z"/>
	<path class="st2" d="M184,19.4V52h-8.5V19.4H184z"/>
	<path class="st2" d="M200.4,28c0-1-0.2-1.8-0.6-2.5c-0.4-0.7-1-1-1.8-1c-0.9,0-1.6,0.3-2,0.9s-0.6,1.3-0.6,2c0,1.1,0.3,1.9,1,2.5
		c0.7,0.6,1.5,1.2,2.6,1.6c1,0.5,2.2,0.9,3.3,1.4c1.2,0.5,2.3,1.1,3.3,1.9c1,0.8,1.9,1.8,2.6,3s1,2.8,1,4.8c0,3.5-1,6-3,7.6
		c-2,1.6-4.9,2.4-8.6,2.4c-1.8,0-3.3-0.1-4.7-0.4c-1.4-0.3-2.5-0.8-3.4-1.5c-0.9-0.7-1.6-1.7-2.1-2.8s-0.7-2.6-0.7-4.3v-1.1h8.2v0.8
		c0,1.4,0.3,2.4,0.8,3s1.2,0.8,2,0.8c0.9,0,1.6-0.3,2-0.9s0.7-1.4,0.7-2.2c0-1.1-0.3-1.9-1-2.5s-1.5-1.2-2.5-1.6
		c-1-0.4-2.1-0.9-3.2-1.3c-1.2-0.5-2.2-1.1-3.2-1.8c-1-0.7-1.8-1.7-2.5-2.9c-0.7-1.2-1-2.7-1-4.7c0-3.3,0.9-5.9,2.7-7.6
		c1.8-1.7,4.5-2.6,8.1-2.6c3.7,0,6.4,0.8,8.1,2.4c1.7,1.6,2.5,4.2,2.5,7.7h-8V28z"/>
	<path class="st2" d="M231.6,19.4v7h-10.8v5.6h10.2v6.7h-10.2v6.5H232v7h-19.8V19.4H231.6z"/>
</g>
</svg>
